<svg xmlns="http://www.w3.org/2000/svg" width="300" height="300" viewBox="0 0 300 300"><rect width="100%" height="100%" fill="#DDDDDD"/><path fill="#999999" d="M79.66 140.06H66.82v8.56h10.84v4.3H66.82v11.78h-5.4v-28.92h18.24zm12.7 3.8q2.28 0 4.15.74t3.2 2.1 2.05 3.32.72 4.38q0 2.44-.72 4.4t-2.05 3.34-3.2 2.12-4.15.74q-2.3 0-4.18-.74t-3.21-2.12-2.06-3.34-.73-4.4q0-2.42.73-4.38t2.06-3.32 3.21-2.1 4.18-.74m0 17.34q2.56 0 3.79-1.72t1.23-5.04-1.23-5.06-3.79-1.74q-2.6 0-3.85 1.75t-1.25 5.05 1.25 5.03 3.85 1.73m22.98-17.34q2.28 0 4.15.74t3.2 2.1 2.05 3.32.72 4.38q0 2.44-.72 4.4t-2.05 3.34-3.2 2.12-4.15.74q-2.3 0-4.18-.74t-3.21-2.12-2.06-3.34-.73-4.4q0-2.42.73-4.38t2.06-3.32 3.21-2.1 4.18-.74m0 17.34q2.56 0 3.79-1.72t1.23-5.04-1.23-5.06-3.79-1.74q-2.6 0-3.85 1.75t-1.25 5.05 1.25 5.03 3.85 1.73m26.78-2.58v-9.2q-.84-1.02-1.83-1.44t-2.13-.42q-1.12 0-2.02.42t-1.54 1.27-.98 2.16-.34 3.09q0 1.8.29 3.05t.83 2.04 1.32 1.14 1.74.35q1.54 0 2.62-.64t2.04-1.82m0-23.64h4.94v29.72h-3.02q-.98 0-1.24-.9l-.42-1.98q-1.24 1.42-2.85 2.3t-3.75.88q-1.68 0-3.08-.7t-2.41-2.03-1.56-3.29-.55-4.48q0-2.28.62-4.24t1.78-3.4 2.78-2.25 3.64-.81q1.72 0 2.94.54t2.18 1.46zm25.72.8v28.92h-5.4v-28.92zm12.52 29.24q-2.68 0-4.11-1.51t-1.43-4.17v-11.46h-2.1q-.4 0-.68-.26t-.28-.78v-1.96l3.3-.54 1.04-5.6q.1-.4.38-.62t.72-.22h2.56v6.46h5.48v3.52h-5.48V159q0 .96.47 1.5t1.29.54q.46 0 .77-.11t.54-.23.41-.23.36-.11q.22 0 .36.11t.3.33l1.48 2.4q-1.08.9-2.48 1.36t-2.9.46m11.94-12.94h9.32q0-.96-.27-1.81t-.81-1.49-1.37-1.01-1.93-.37q-2.14 0-3.37 1.22t-1.57 3.46m12.6 2.98h-12.7q.12 1.58.56 2.73t1.16 1.9 1.71 1.12 2.19.37 2.07-.28 1.52-.62 1.14-.62.95-.28q.62 0 .92.46l1.42 1.8q-.82.96-1.84 1.61t-2.13 1.04-2.26.55-2.23.16q-2.14 0-3.98-.71t-3.2-2.1-2.14-3.44-.78-4.75q0-2.1.68-3.95t1.95-3.22 3.1-2.17 4.13-.8q1.94 0 3.58.62t2.82 1.81 1.85 2.92.67 3.95q0 1.12-.24 1.51t-.92.39m9.8 9.64h-4.94v-20.52h3.02q.96 0 1.26.9l.32 1.52q.54-.6 1.13-1.1t1.26-.86 1.44-.57 1.69-.21q1.94 0 3.19 1.05t1.87 2.79q.48-1.02 1.2-1.75t1.58-1.19 1.83-.68 1.95-.22q1.7 0 3.02.52t2.22 1.52 1.37 2.44.47 3.3v13.06h-4.94v-13.06q0-1.96-.86-2.95t-2.52-.99q-.76 0-1.41.26t-1.14.75-.77 1.23-.28 1.7v13.06h-4.96v-13.06q0-2.06-.83-3t-2.43-.94q-1.08 0-2.01.53t-1.73 1.45z"/></svg>