<svg xmlns="http://www.w3.org/2000/svg" xmlns:xlink="http://www.w3.org/1999/xlink" xml:space="preserve" version="1.1" style="shape-rendering:geometricPrecision;text-rendering:geometricPrecision;image-rendering:optimizeQuality;" viewBox="0 0 8467 10583.75" x="0px" y="0px" fill-rule="evenodd" clip-rule="evenodd"><defs><style type="text/css">
   
    .fil0 {fill:white}
   
  </style></defs><g><path class="fil0" d="M4233 575c2021,0 3659,1638 3659,3658 0,2021 -1638,3659 -3659,3659 -2020,0 -3658,-1638 -3658,-3659 0,-2020 1638,-3658 3658,-3658zm-1418 1062l186 0 0 1565 128 0 0 -1565 218 0 0 1565 129 0 0 -1565 184 0 0 1565 128 0 0 -1565 183 0 0 1485c0,276 -217,369 -453,369l185 3355c-4,146 -612,141 -619,0l151 -3355c-226,0 -420,-122 -420,-369l0 -1485zm2323 2025l175 3178c-4,147 -612,142 -619,0l143 -3175c-298,-108 -522,-543 -522,-1063 0,-602 300,-1089 669,-1089 368,0 668,487 668,1089 0,516 -219,947 -514,1060z"/></g><text x="0" y="8482" fill="#ffff" font-size="5px" font-weight="bold" font-family="'Helvetica Neue', Helvetica, Arial-Unicode, Arial, Sans-serif">Created by Trisula</text><text x="0" y="8487" fill="#ffff" font-size="5px" font-weight="bold" font-family="'Helvetica Neue', Helvetica, Arial-Unicode, Arial, Sans-serif">from the Noun Project</text></svg>